<svg xmlns="http://www.w3.org/2000/svg"  viewBox="0 0 48 48" width="480px" height="480px"><path fill="#d50000" d="M2,17.085c0.464-0.303,0.896-0.678,1.397-0.896c1.505-0.658,3.043-1.239,4.55-1.893 c0.279-0.121,0.57-0.394,0.692-0.67c2.3-5.208,6.13-8.722,11.634-10.098c6.901-1.725,12.771,0.22,17.503,5.573 c0.312,0.353,0.407,0.72,0.046,1.079c-0.367,0.364-0.688,0.136-1.015-0.116c-5.234-4.027-12.561-4.507-17.989-1.069 c-1.286,0.815-2.358,1.973-3.518,2.985c-0.158,0.138-0.26,0.341-0.476,0.635c0.857-0.121,1.569-0.23,2.283-0.322 c7.065-0.903,13.925-0.222,20.475,2.735c2.402,1.085,4.641,2.441,6.475,4.375c1.035,1.09,1.932,2.286,1.944,3.889 c0.015,1.974-0.891,3.568-2.183,4.963c-2.196,2.372-4.984,3.809-7.939,4.961c-0.736,0.287-1.493,0.52-2.243,0.769 c-0.171,0.057-0.365,0.134-0.529,0.102c-0.234-0.046-0.6-0.144-0.64-0.292c-0.059-0.223,0.054-0.556,0.207-0.755 c0.148-0.192,0.427-0.3,0.668-0.399c1.35-0.555,2.713-1.079,4.058-1.646c1.858-0.783,3.097-2.078,3.477-4.148 c0.523-2.847-0.8-4.787-2.976-6.318c-2.618-1.843-5.589-2.851-8.666-3.575c-3.689-0.869-7.435-1.289-11.223-1.225 c-1.58,0.027-3.158,0.21-4.737,0.304c-0.371,0.022-0.564,0.175-0.72,0.516c-0.969,2.115-1.217,4.341-1.018,6.629 c0.327,3.748,1.86,6.921,4.567,9.528c0.21,0.202,0.383,0.547,0.395,0.832c0.024,0.581-0.564,0.872-1.103,0.495 c-0.93-0.65-1.869-1.319-2.671-2.114c-4.124-4.089-5.672-9.088-5.043-14.821c0.006-0.058,0.001-0.118,0.001-0.294 c-0.431,0.084-0.839,0.146-1.237,0.245c-1.062,0.262-2.138,0.484-3.172,0.833C2.719,18.067,2.345,18.015,2,17.574 C2,17.411,2,17.248,2,17.085z"/><path fill="#d50000" d="M24.552,44.709c0-1.196,0-2.295,0-3.394c0-2.873,0.007-5.747-0.008-8.62 c-0.002-0.368,0.088-0.582,0.43-0.762c1.023-0.537,2.021-1.123,3.033-1.682c0.514-0.284,0.863-0.066,0.863,0.528 c-0.006,4.218-0.013,8.436-0.019,12.654c-0.002,1.144-0.131,1.276-1.247,1.276C26.614,44.709,25.625,44.709,24.552,44.709z"/><path fill="#d50000" d="M23.157,33.068c0,4.07,0,7.998,0,12.005c-0.808,0-1.596,0.039-2.373-0.031 c-0.17-0.015-0.42-0.41-0.437-0.644c-0.056-0.77-0.022-1.547-0.022-2.322c0-2.221,0.011-4.443-0.007-6.664 c-0.004-0.504,0.138-0.835,0.608-1.074C21.658,33.965,22.359,33.527,23.157,33.068z"/></svg>